<svg width="1080" height="1074" viewBox="0 0 1080 1074" fill="none" xmlns="http://www.w3.org/2000/svg">
<g clip-path="url(#clip0_9_118)">
<path d="M539.842 1073.68C836.332 1073.68 1076.68 833.332 1076.68 536.842C1076.68 240.352 836.332 0 539.842 0C243.352 0 3 240.352 3 536.842C3 833.332 243.352 1073.68 539.842 1073.68Z" fill="url(#paint0_linear_9_118)" stroke="white" stroke-opacity="0.1"/>
<path d="M290.368 347.313H479.842C511.421 347.313 543 372.583 543 410.489V473.666C543 511.571 511.421 536.842 479.842 536.842H353.526V663.195" stroke="url(#paint1_linear_9_118)" stroke-width="55" stroke-linecap="round" stroke-linejoin="round"/>
<path d="M606.158 663.195V347.313L732.474 536.842L858.789 347.313V663.195" stroke="url(#paint2_linear_9_118)" stroke-width="55" stroke-linecap="round" stroke-linejoin="round"/>
<path d="M321.947 467.348C335.9 467.348 347.211 456.034 347.211 442.077C347.211 428.121 335.9 416.807 321.947 416.807C307.995 416.807 296.684 428.121 296.684 442.077C296.684 456.034 307.995 467.348 321.947 467.348Z" fill="#00E5FF"/>
<path d="M827.21 593.701C841.163 593.701 852.474 582.387 852.474 568.43C852.474 554.474 841.163 543.16 827.21 543.16C813.258 543.16 801.947 554.474 801.947 568.43C801.947 582.387 813.258 593.701 827.21 593.701Z" fill="#00E5FF"/>
<path d="M208.82 830.545V820.91H254.215V830.545H237.293V876.183H225.742V830.545H208.82ZM261.691 876.183V820.91H298.935V830.545H273.377V843.716H297.019V853.351H273.377V866.548H299.043V876.183H261.691ZM356.994 840.261H345.173C344.957 838.732 344.517 837.374 343.851 836.186C343.185 834.981 342.33 833.955 341.287 833.109C340.243 832.264 339.038 831.616 337.67 831.166C336.321 830.716 334.855 830.491 333.271 830.491C330.41 830.491 327.919 831.202 325.795 832.624C323.672 834.027 322.026 836.078 320.857 838.777C319.687 841.458 319.102 844.714 319.102 848.547C319.102 852.487 319.687 855.798 320.857 858.479C322.044 861.16 323.699 863.184 325.822 864.551C327.946 865.919 330.401 866.602 333.19 866.602C334.756 866.602 336.204 866.395 337.535 865.982C338.885 865.568 340.081 864.965 341.125 864.173C342.169 863.364 343.032 862.383 343.716 861.232C344.418 860.08 344.903 858.767 345.173 857.291L356.994 857.345C356.688 859.882 355.924 862.329 354.7 864.686C353.495 867.025 351.866 869.121 349.815 870.974C347.782 872.81 345.353 874.267 342.528 875.347C339.722 876.408 336.546 876.939 333.001 876.939C328.071 876.939 323.663 875.823 319.777 873.592C315.909 871.361 312.85 868.132 310.601 863.903C308.37 859.675 307.254 854.556 307.254 848.547C307.254 842.519 308.388 837.392 310.655 833.163C312.922 828.935 315.999 825.714 319.885 823.501C323.771 821.27 328.143 820.155 333.001 820.155C336.204 820.155 339.173 820.605 341.908 821.504C344.66 822.404 347.098 823.717 349.222 825.445C351.345 827.154 353.072 829.25 354.403 831.733C355.753 834.216 356.616 837.059 356.994 840.261ZM365.374 876.183V820.91H377.06V843.716H400.783V820.91H412.442V876.183H400.783V853.351H377.06V876.183H365.374ZM469.652 836.807C469.436 834.63 468.509 832.938 466.872 831.733C465.234 830.527 463.012 829.925 460.206 829.925C458.298 829.925 456.688 830.195 455.375 830.734C454.061 831.256 453.054 831.985 452.352 832.92C451.668 833.856 451.326 834.918 451.326 836.105C451.29 837.095 451.497 837.958 451.947 838.696C452.415 839.434 453.054 840.072 453.863 840.612C454.673 841.134 455.609 841.593 456.67 841.989C457.732 842.366 458.865 842.69 460.071 842.96L465.037 844.148C467.448 844.687 469.661 845.407 471.676 846.307C473.691 847.206 475.436 848.313 476.912 849.626C478.387 850.94 479.529 852.487 480.339 854.268C481.167 856.05 481.59 858.092 481.608 860.395C481.59 863.777 480.726 866.71 479.017 869.193C477.325 871.658 474.878 873.574 471.676 874.942C468.491 876.291 464.65 876.966 460.152 876.966C455.689 876.966 451.803 876.282 448.493 874.915C445.2 873.547 442.627 871.523 440.774 868.842C438.939 866.143 437.976 862.806 437.886 858.83H449.194C449.32 860.683 449.851 862.23 450.787 863.472C451.74 864.695 453.009 865.622 454.592 866.251C456.193 866.863 458.002 867.169 460.017 867.169C461.996 867.169 463.714 866.881 465.171 866.305C466.647 865.73 467.789 864.929 468.599 863.903C469.409 862.878 469.814 861.699 469.814 860.368C469.814 859.126 469.445 858.083 468.707 857.237C467.987 856.392 466.926 855.672 465.522 855.078C464.137 854.484 462.437 853.945 460.421 853.459L454.403 851.947C449.743 850.814 446.064 849.042 443.365 846.631C440.666 844.22 439.325 840.972 439.343 836.888C439.325 833.541 440.216 830.617 442.015 828.116C443.832 825.616 446.324 823.663 449.491 822.26C452.658 820.857 456.256 820.155 460.287 820.155C464.389 820.155 467.969 820.857 471.028 822.26C474.105 823.663 476.498 825.616 478.207 828.116C479.916 830.617 480.798 833.514 480.852 836.807H469.652ZM540.261 848.547C540.261 854.574 539.118 859.702 536.833 863.93C534.566 868.159 531.471 871.388 527.549 873.619C523.645 875.832 519.254 876.939 514.379 876.939C509.467 876.939 505.058 875.823 501.154 873.592C497.25 871.361 494.164 868.132 491.897 863.903C489.63 859.675 488.496 854.556 488.496 848.547C488.496 842.519 489.63 837.392 491.897 833.163C494.164 828.935 497.25 825.714 501.154 823.501C505.058 821.27 509.467 820.155 514.379 820.155C519.254 820.155 523.645 821.27 527.549 823.501C531.471 825.714 534.566 828.935 536.833 833.163C539.118 837.392 540.261 842.519 540.261 848.547ZM528.413 848.547C528.413 844.643 527.828 841.35 526.658 838.669C525.507 835.988 523.879 833.955 521.773 832.57C519.668 831.184 517.203 830.491 514.379 830.491C511.554 830.491 509.089 831.184 506.984 832.57C504.879 833.955 503.241 835.988 502.072 838.669C500.92 841.35 500.344 844.643 500.344 848.547C500.344 852.451 500.92 855.744 502.072 858.425C503.241 861.106 504.879 863.139 506.984 864.524C509.089 865.91 511.554 866.602 514.379 866.602C517.203 866.602 519.668 865.91 521.773 864.524C523.879 863.139 525.507 861.106 526.658 858.425C527.828 855.744 528.413 852.451 528.413 848.547ZM548.917 876.183V820.91H560.603V866.548H584.299V876.183H548.917ZM626.179 820.91H637.865V856.805C637.865 860.836 636.902 864.362 634.977 867.385C633.07 870.408 630.398 872.765 626.962 874.456C623.525 876.129 619.522 876.966 614.952 876.966C610.364 876.966 606.351 876.129 602.915 874.456C599.478 872.765 596.806 870.408 594.899 867.385C592.992 864.362 592.038 860.836 592.038 856.805V820.91H603.724V855.807C603.724 857.912 604.183 859.783 605.101 861.42C606.036 863.058 607.35 864.344 609.041 865.28C610.732 866.215 612.703 866.683 614.952 866.683C617.219 866.683 619.189 866.215 620.862 865.28C622.553 864.344 623.858 863.058 624.776 861.42C625.711 859.783 626.179 857.912 626.179 855.807V820.91ZM645.375 830.545V820.91H690.77V830.545H673.848V876.183H662.296V830.545H645.375ZM709.931 820.91V876.183H698.245V820.91H709.931ZM770.339 848.547C770.339 854.574 769.196 859.702 766.911 863.93C764.644 868.159 761.549 871.388 757.627 873.619C753.723 875.832 749.333 876.939 744.457 876.939C739.545 876.939 735.137 875.823 731.232 873.592C727.328 871.361 724.242 868.132 721.975 863.903C719.708 859.675 718.575 854.556 718.575 848.547C718.575 842.519 719.708 837.392 721.975 833.163C724.242 828.935 727.328 825.714 731.232 823.501C735.137 821.27 739.545 820.155 744.457 820.155C749.333 820.155 753.723 821.27 757.627 823.501C761.549 825.714 764.644 828.935 766.911 833.163C769.196 837.392 770.339 842.519 770.339 848.547ZM758.491 848.547C758.491 844.643 757.906 841.35 756.736 838.669C755.585 835.988 753.957 833.955 751.852 832.57C749.746 831.184 747.281 830.491 744.457 830.491C741.632 830.491 739.167 831.184 737.062 832.57C734.957 833.955 733.319 835.988 732.15 838.669C730.998 841.35 730.423 844.643 730.423 848.547C730.423 852.451 730.998 855.744 732.15 858.425C733.319 861.106 734.957 863.139 737.062 864.524C739.167 865.91 741.632 866.602 744.457 866.602C747.281 866.602 749.746 865.91 751.852 864.524C753.957 863.139 755.585 861.106 756.736 858.425C757.906 855.744 758.491 852.451 758.491 848.547ZM825.227 820.91V876.183H815.133L791.086 841.395H790.681V876.183H778.995V820.91H789.251L813.109 855.672H813.595V820.91H825.227ZM864.866 836.807C864.651 834.63 863.724 832.938 862.087 831.733C860.449 830.527 858.227 829.925 855.42 829.925C853.513 829.925 851.903 830.195 850.589 830.734C849.276 831.256 848.268 831.985 847.567 832.92C846.883 833.856 846.541 834.918 846.541 836.105C846.505 837.095 846.712 837.958 847.162 838.696C847.63 839.434 848.268 840.072 849.078 840.612C849.888 841.134 850.823 841.593 851.885 841.989C852.946 842.366 854.08 842.69 855.286 842.96L860.251 844.148C862.662 844.687 864.875 845.407 866.891 846.307C868.906 847.206 870.651 848.313 872.126 849.626C873.602 850.94 874.744 852.487 875.554 854.268C876.382 856.05 876.804 858.092 876.822 860.395C876.804 863.777 875.941 866.71 874.232 869.193C872.54 871.658 870.093 873.574 866.891 874.942C863.706 876.291 859.865 876.966 855.366 876.966C850.904 876.966 847.018 876.282 843.707 874.915C840.415 873.547 837.842 871.523 835.989 868.842C834.153 866.143 833.191 862.806 833.101 858.83H844.409C844.535 860.683 845.066 862.23 846.001 863.472C846.955 864.695 848.223 865.622 849.807 866.251C851.408 866.863 853.216 867.169 855.232 867.169C857.211 867.169 858.929 866.881 860.386 866.305C861.862 865.73 863.004 864.929 863.814 863.903C864.624 862.878 865.028 861.699 865.028 860.368C865.028 859.126 864.66 858.083 863.922 857.237C863.202 856.392 862.141 855.672 860.737 855.078C859.352 854.484 857.652 853.945 855.636 853.459L849.618 851.947C844.958 850.814 841.278 849.042 838.58 846.631C835.881 844.22 834.54 840.972 834.558 836.888C834.54 833.541 835.431 830.617 837.23 828.116C839.047 825.616 841.539 823.663 844.706 822.26C847.873 820.857 851.471 820.155 855.501 820.155C859.604 820.155 863.184 820.857 866.243 822.26C869.32 823.663 871.713 825.616 873.422 828.116C875.131 830.617 876.013 833.514 876.067 836.807H864.866Z" fill="white"/>
</g>
<defs>
<linearGradient id="paint0_linear_9_118" x1="539.842" y1="0" x2="539.842" y2="1073.68" gradientUnits="userSpaceOnUse">
<stop stop-color="#021C4A"/>
<stop offset="1" stop-color="#013973"/>
</linearGradient>
<linearGradient id="paint1_linear_9_118" x1="290.368" y1="347.313" x2="858.868" y2="663.053" gradientUnits="userSpaceOnUse">
<stop stop-color="#7F00FF"/>
<stop offset="1" stop-color="#E100FF"/>
</linearGradient>
<linearGradient id="paint2_linear_9_118" x1="290.368" y1="347.313" x2="858.868" y2="663.053" gradientUnits="userSpaceOnUse">
<stop stop-color="#7F00FF"/>
<stop offset="1" stop-color="#E100FF"/>
</linearGradient>
<clipPath id="clip0_9_118">
<rect width="1080" height="1074" fill="white"/>
</clipPath>
</defs>
</svg>
